<?xml version="1.0" encoding="utf-8" standalone="no"?>
<!DOCTYPE svg PUBLIC "-//W3C//DTD SVG 1.1//EN"
  "http://www.w3.org/Graphics/SVG/1.1/DTD/svg11.dtd">
<svg xmlns:xlink="http://www.w3.org/1999/xlink" width="1080pt" height="576pt" viewBox="0 0 1080 576" xmlns="http://www.w3.org/2000/svg" version="1.1">
 <metadata>
  <rdf:RDF xmlns:dc="http://purl.org/dc/elements/1.1/" xmlns:cc="http://creativecommons.org/ns#" xmlns:rdf="http://www.w3.org/1999/02/22-rdf-syntax-ns#">
   <cc:Work>
    <dc:type rdf:resource="http://purl.org/dc/dcmitype/StillImage"/>
    <dc:date>2022-06-28T20:06:58.330981</dc:date>
    <dc:format>image/svg+xml</dc:format>
    <dc:creator>
     <cc:Agent>
      <dc:title>Matplotlib v3.5.2, https://matplotlib.org/</dc:title>
     </cc:Agent>
    </dc:creator>
   </cc:Work>
  </rdf:RDF>
 </metadata>
 <defs>
  <style type="text/css">*{stroke-linejoin: round; stroke-linecap: butt}</style>
 </defs>
 <g id="figure_1">
  <g id="patch_1">
   <path d="M 0 576 
L 1080 576 
L 1080 0 
L 0 0 
z
" style="fill: #ffffff"/>
  </g>
  <g id="axes_1">
   <g id="patch_2">
    <path d="M 135 504 
L 972 504 
L 972 69.12 
L 135 69.12 
z
" style="fill: #ffffff"/>
   </g>
   <g id="matplotlib.axis_1">
    <g id="xtick_1">
     <g id="line2d_1">
      <path d="M 157.193182 504 
L 157.193182 69.12 
" clip-path="url(#p7ff95d0092)" style="fill: none; stroke: #cccccc; stroke-width: 0.8; stroke-linecap: round"/>
     </g>
     <g id="text_1">
      <!-- 0 -->
      <g style="fill: #262626" transform="translate(154.412713 518.157812)scale(0.1 -0.1)">
       <defs>
        <path id="ArialMT-30" d="M 266 2259 
Q 266 3072 433 3567 
Q 600 4063 929 4331 
Q 1259 4600 1759 4600 
Q 2128 4600 2406 4451 
Q 2684 4303 2865 4023 
Q 3047 3744 3150 3342 
Q 3253 2941 3253 2259 
Q 3253 1453 3087 958 
Q 2922 463 2592 192 
Q 2263 -78 1759 -78 
Q 1097 -78 719 397 
Q 266 969 266 2259 
z
M 844 2259 
Q 844 1131 1108 757 
Q 1372 384 1759 384 
Q 2147 384 2411 759 
Q 2675 1134 2675 2259 
Q 2675 3391 2411 3762 
Q 2147 4134 1753 4134 
Q 1366 4134 1134 3806 
Q 844 3388 844 2259 
z
" transform="scale(0.015625)"/>
       </defs>
       <use xlink:href="#ArialMT-30"/>
      </g>
     </g>
    </g>
    <g id="xtick_2">
     <g id="line2d_2">
      <path d="M 315.715909 504 
L 315.715909 69.12 
" clip-path="url(#p7ff95d0092)" style="fill: none; stroke: #cccccc; stroke-width: 0.8; stroke-linecap: round"/>
     </g>
     <g id="text_2">
      <!-- 10 -->
      <g style="fill: #262626" transform="translate(310.154972 518.157812)scale(0.1 -0.1)">
       <defs>
        <path id="ArialMT-31" d="M 2384 0 
L 1822 0 
L 1822 3584 
Q 1619 3391 1289 3197 
Q 959 3003 697 2906 
L 697 3450 
Q 1169 3672 1522 3987 
Q 1875 4303 2022 4600 
L 2384 4600 
L 2384 0 
z
" transform="scale(0.015625)"/>
       </defs>
       <use xlink:href="#ArialMT-31"/>
       <use xlink:href="#ArialMT-30" x="55.615234"/>
      </g>
     </g>
    </g>
    <g id="xtick_3">
     <g id="line2d_3">
      <path d="M 474.238636 504 
L 474.238636 69.12 
" clip-path="url(#p7ff95d0092)" style="fill: none; stroke: #cccccc; stroke-width: 0.8; stroke-linecap: round"/>
     </g>
     <g id="text_3">
      <!-- 20 -->
      <g style="fill: #262626" transform="translate(468.677699 518.157812)scale(0.1 -0.1)">
       <defs>
        <path id="ArialMT-32" d="M 3222 541 
L 3222 0 
L 194 0 
Q 188 203 259 391 
Q 375 700 629 1000 
Q 884 1300 1366 1694 
Q 2113 2306 2375 2664 
Q 2638 3022 2638 3341 
Q 2638 3675 2398 3904 
Q 2159 4134 1775 4134 
Q 1369 4134 1125 3890 
Q 881 3647 878 3216 
L 300 3275 
Q 359 3922 746 4261 
Q 1134 4600 1788 4600 
Q 2447 4600 2831 4234 
Q 3216 3869 3216 3328 
Q 3216 3053 3103 2787 
Q 2991 2522 2730 2228 
Q 2469 1934 1863 1422 
Q 1356 997 1212 845 
Q 1069 694 975 541 
L 3222 541 
z
" transform="scale(0.015625)"/>
       </defs>
       <use xlink:href="#ArialMT-32"/>
       <use xlink:href="#ArialMT-30" x="55.615234"/>
      </g>
     </g>
    </g>
    <g id="xtick_4">
     <g id="line2d_4">
      <path d="M 632.761364 504 
L 632.761364 69.12 
" clip-path="url(#p7ff95d0092)" style="fill: none; stroke: #cccccc; stroke-width: 0.8; stroke-linecap: round"/>
     </g>
     <g id="text_4">
      <!-- 30 -->
      <g style="fill: #262626" transform="translate(627.200426 518.157812)scale(0.1 -0.1)">
       <defs>
        <path id="ArialMT-33" d="M 269 1209 
L 831 1284 
Q 928 806 1161 595 
Q 1394 384 1728 384 
Q 2125 384 2398 659 
Q 2672 934 2672 1341 
Q 2672 1728 2419 1979 
Q 2166 2231 1775 2231 
Q 1616 2231 1378 2169 
L 1441 2663 
Q 1497 2656 1531 2656 
Q 1891 2656 2178 2843 
Q 2466 3031 2466 3422 
Q 2466 3731 2256 3934 
Q 2047 4138 1716 4138 
Q 1388 4138 1169 3931 
Q 950 3725 888 3313 
L 325 3413 
Q 428 3978 793 4289 
Q 1159 4600 1703 4600 
Q 2078 4600 2393 4439 
Q 2709 4278 2876 4000 
Q 3044 3722 3044 3409 
Q 3044 3113 2884 2869 
Q 2725 2625 2413 2481 
Q 2819 2388 3044 2092 
Q 3269 1797 3269 1353 
Q 3269 753 2831 336 
Q 2394 -81 1725 -81 
Q 1122 -81 723 278 
Q 325 638 269 1209 
z
" transform="scale(0.015625)"/>
       </defs>
       <use xlink:href="#ArialMT-33"/>
       <use xlink:href="#ArialMT-30" x="55.615234"/>
      </g>
     </g>
    </g>
    <g id="xtick_5">
     <g id="line2d_5">
      <path d="M 791.284091 504 
L 791.284091 69.12 
" clip-path="url(#p7ff95d0092)" style="fill: none; stroke: #cccccc; stroke-width: 0.8; stroke-linecap: round"/>
     </g>
     <g id="text_5">
      <!-- 40 -->
      <g style="fill: #262626" transform="translate(785.723153 518.157812)scale(0.1 -0.1)">
       <defs>
        <path id="ArialMT-34" d="M 2069 0 
L 2069 1097 
L 81 1097 
L 81 1613 
L 2172 4581 
L 2631 4581 
L 2631 1613 
L 3250 1613 
L 3250 1097 
L 2631 1097 
L 2631 0 
L 2069 0 
z
M 2069 1613 
L 2069 3678 
L 634 1613 
L 2069 1613 
z
" transform="scale(0.015625)"/>
       </defs>
       <use xlink:href="#ArialMT-34"/>
       <use xlink:href="#ArialMT-30" x="55.615234"/>
      </g>
     </g>
    </g>
    <g id="xtick_6">
     <g id="line2d_6">
      <path d="M 949.806818 504 
L 949.806818 69.12 
" clip-path="url(#p7ff95d0092)" style="fill: none; stroke: #cccccc; stroke-width: 0.8; stroke-linecap: round"/>
     </g>
     <g id="text_6">
      <!-- 50 -->
      <g style="fill: #262626" transform="translate(944.245881 518.157812)scale(0.1 -0.1)">
       <defs>
        <path id="ArialMT-35" d="M 266 1200 
L 856 1250 
Q 922 819 1161 601 
Q 1400 384 1738 384 
Q 2144 384 2425 690 
Q 2706 997 2706 1503 
Q 2706 1984 2436 2262 
Q 2166 2541 1728 2541 
Q 1456 2541 1237 2417 
Q 1019 2294 894 2097 
L 366 2166 
L 809 4519 
L 3088 4519 
L 3088 3981 
L 1259 3981 
L 1013 2750 
Q 1425 3038 1878 3038 
Q 2478 3038 2890 2622 
Q 3303 2206 3303 1553 
Q 3303 931 2941 478 
Q 2500 -78 1738 -78 
Q 1113 -78 717 272 
Q 322 622 266 1200 
z
" transform="scale(0.015625)"/>
       </defs>
       <use xlink:href="#ArialMT-35"/>
       <use xlink:href="#ArialMT-30" x="55.615234"/>
      </g>
     </g>
    </g>
    <g id="text_7">
     <!-- num_ratings -->
     <g style="fill: #262626" transform="translate(525.9875 531.303125)scale(0.1 -0.1)">
      <defs>
       <path id="ArialMT-6e" d="M 422 0 
L 422 3319 
L 928 3319 
L 928 2847 
Q 1294 3394 1984 3394 
Q 2284 3394 2536 3286 
Q 2788 3178 2913 3003 
Q 3038 2828 3088 2588 
Q 3119 2431 3119 2041 
L 3119 0 
L 2556 0 
L 2556 2019 
Q 2556 2363 2490 2533 
Q 2425 2703 2258 2804 
Q 2091 2906 1866 2906 
Q 1506 2906 1245 2678 
Q 984 2450 984 1813 
L 984 0 
L 422 0 
z
" transform="scale(0.015625)"/>
       <path id="ArialMT-75" d="M 2597 0 
L 2597 488 
Q 2209 -75 1544 -75 
Q 1250 -75 995 37 
Q 741 150 617 320 
Q 494 491 444 738 
Q 409 903 409 1263 
L 409 3319 
L 972 3319 
L 972 1478 
Q 972 1038 1006 884 
Q 1059 663 1231 536 
Q 1403 409 1656 409 
Q 1909 409 2131 539 
Q 2353 669 2445 892 
Q 2538 1116 2538 1541 
L 2538 3319 
L 3100 3319 
L 3100 0 
L 2597 0 
z
" transform="scale(0.015625)"/>
       <path id="ArialMT-6d" d="M 422 0 
L 422 3319 
L 925 3319 
L 925 2853 
Q 1081 3097 1340 3245 
Q 1600 3394 1931 3394 
Q 2300 3394 2536 3241 
Q 2772 3088 2869 2813 
Q 3263 3394 3894 3394 
Q 4388 3394 4653 3120 
Q 4919 2847 4919 2278 
L 4919 0 
L 4359 0 
L 4359 2091 
Q 4359 2428 4304 2576 
Q 4250 2725 4106 2815 
Q 3963 2906 3769 2906 
Q 3419 2906 3187 2673 
Q 2956 2441 2956 1928 
L 2956 0 
L 2394 0 
L 2394 2156 
Q 2394 2531 2256 2718 
Q 2119 2906 1806 2906 
Q 1569 2906 1367 2781 
Q 1166 2656 1075 2415 
Q 984 2175 984 1722 
L 984 0 
L 422 0 
z
" transform="scale(0.015625)"/>
       <path id="ArialMT-5f" d="M -97 -1272 
L -97 -866 
L 3631 -866 
L 3631 -1272 
L -97 -1272 
z
" transform="scale(0.015625)"/>
       <path id="ArialMT-72" d="M 416 0 
L 416 3319 
L 922 3319 
L 922 2816 
Q 1116 3169 1280 3281 
Q 1444 3394 1641 3394 
Q 1925 3394 2219 3213 
L 2025 2691 
Q 1819 2813 1613 2813 
Q 1428 2813 1281 2702 
Q 1134 2591 1072 2394 
Q 978 2094 978 1738 
L 978 0 
L 416 0 
z
" transform="scale(0.015625)"/>
       <path id="ArialMT-61" d="M 2588 409 
Q 2275 144 1986 34 
Q 1697 -75 1366 -75 
Q 819 -75 525 192 
Q 231 459 231 875 
Q 231 1119 342 1320 
Q 453 1522 633 1644 
Q 813 1766 1038 1828 
Q 1203 1872 1538 1913 
Q 2219 1994 2541 2106 
Q 2544 2222 2544 2253 
Q 2544 2597 2384 2738 
Q 2169 2928 1744 2928 
Q 1347 2928 1158 2789 
Q 969 2650 878 2297 
L 328 2372 
Q 403 2725 575 2942 
Q 747 3159 1072 3276 
Q 1397 3394 1825 3394 
Q 2250 3394 2515 3294 
Q 2781 3194 2906 3042 
Q 3031 2891 3081 2659 
Q 3109 2516 3109 2141 
L 3109 1391 
Q 3109 606 3145 398 
Q 3181 191 3288 0 
L 2700 0 
Q 2613 175 2588 409 
z
M 2541 1666 
Q 2234 1541 1622 1453 
Q 1275 1403 1131 1340 
Q 988 1278 909 1158 
Q 831 1038 831 891 
Q 831 666 1001 516 
Q 1172 366 1500 366 
Q 1825 366 2078 508 
Q 2331 650 2450 897 
Q 2541 1088 2541 1459 
L 2541 1666 
z
" transform="scale(0.015625)"/>
       <path id="ArialMT-74" d="M 1650 503 
L 1731 6 
Q 1494 -44 1306 -44 
Q 1000 -44 831 53 
Q 663 150 594 308 
Q 525 466 525 972 
L 525 2881 
L 113 2881 
L 113 3319 
L 525 3319 
L 525 4141 
L 1084 4478 
L 1084 3319 
L 1650 3319 
L 1650 2881 
L 1084 2881 
L 1084 941 
Q 1084 700 1114 631 
Q 1144 563 1211 522 
Q 1278 481 1403 481 
Q 1497 481 1650 503 
z
" transform="scale(0.015625)"/>
       <path id="ArialMT-69" d="M 425 3934 
L 425 4581 
L 988 4581 
L 988 3934 
L 425 3934 
z
M 425 0 
L 425 3319 
L 988 3319 
L 988 0 
L 425 0 
z
" transform="scale(0.015625)"/>
       <path id="ArialMT-67" d="M 319 -275 
L 866 -356 
Q 900 -609 1056 -725 
Q 1266 -881 1628 -881 
Q 2019 -881 2231 -725 
Q 2444 -569 2519 -288 
Q 2563 -116 2559 434 
Q 2191 0 1641 0 
Q 956 0 581 494 
Q 206 988 206 1678 
Q 206 2153 378 2554 
Q 550 2956 876 3175 
Q 1203 3394 1644 3394 
Q 2231 3394 2613 2919 
L 2613 3319 
L 3131 3319 
L 3131 450 
Q 3131 -325 2973 -648 
Q 2816 -972 2473 -1159 
Q 2131 -1347 1631 -1347 
Q 1038 -1347 672 -1080 
Q 306 -813 319 -275 
z
M 784 1719 
Q 784 1066 1043 766 
Q 1303 466 1694 466 
Q 2081 466 2343 764 
Q 2606 1063 2606 1700 
Q 2606 2309 2336 2618 
Q 2066 2928 1684 2928 
Q 1309 2928 1046 2623 
Q 784 2319 784 1719 
z
" transform="scale(0.015625)"/>
       <path id="ArialMT-73" d="M 197 991 
L 753 1078 
Q 800 744 1014 566 
Q 1228 388 1613 388 
Q 2000 388 2187 545 
Q 2375 703 2375 916 
Q 2375 1106 2209 1216 
Q 2094 1291 1634 1406 
Q 1016 1563 777 1677 
Q 538 1791 414 1992 
Q 291 2194 291 2438 
Q 291 2659 392 2848 
Q 494 3038 669 3163 
Q 800 3259 1026 3326 
Q 1253 3394 1513 3394 
Q 1903 3394 2198 3281 
Q 2494 3169 2634 2976 
Q 2775 2784 2828 2463 
L 2278 2388 
Q 2241 2644 2061 2787 
Q 1881 2931 1553 2931 
Q 1166 2931 1000 2803 
Q 834 2675 834 2503 
Q 834 2394 903 2306 
Q 972 2216 1119 2156 
Q 1203 2125 1616 2013 
Q 2213 1853 2448 1751 
Q 2684 1650 2818 1456 
Q 2953 1263 2953 975 
Q 2953 694 2789 445 
Q 2625 197 2315 61 
Q 2006 -75 1616 -75 
Q 969 -75 630 194 
Q 291 463 197 991 
z
" transform="scale(0.015625)"/>
      </defs>
      <use xlink:href="#ArialMT-6e"/>
      <use xlink:href="#ArialMT-75" x="55.615234"/>
      <use xlink:href="#ArialMT-6d" x="111.230469"/>
      <use xlink:href="#ArialMT-5f" x="194.53125"/>
      <use xlink:href="#ArialMT-72" x="250.146484"/>
      <use xlink:href="#ArialMT-61" x="283.447266"/>
      <use xlink:href="#ArialMT-74" x="339.0625"/>
      <use xlink:href="#ArialMT-69" x="366.845703"/>
      <use xlink:href="#ArialMT-6e" x="389.0625"/>
      <use xlink:href="#ArialMT-67" x="444.677734"/>
      <use xlink:href="#ArialMT-73" x="500.292969"/>
     </g>
    </g>
   </g>
   <g id="matplotlib.axis_2">
    <g id="ytick_1">
     <g id="line2d_7">
      <path d="M 135 504 
L 972 504 
" clip-path="url(#p7ff95d0092)" style="fill: none; stroke: #cccccc; stroke-width: 0.8; stroke-linecap: round"/>
     </g>
     <g id="text_8">
      <!-- 0 -->
      <g style="fill: #262626" transform="translate(122.439063 507.578906)scale(0.1 -0.1)">
       <use xlink:href="#ArialMT-30"/>
      </g>
     </g>
    </g>
    <g id="ytick_2">
     <g id="line2d_8">
      <path d="M 135 450.320257 
L 972 450.320257 
" clip-path="url(#p7ff95d0092)" style="fill: none; stroke: #cccccc; stroke-width: 0.8; stroke-linecap: round"/>
     </g>
     <g id="text_9">
      <!-- 2500 -->
      <g style="fill: #262626" transform="translate(105.75625 453.899163)scale(0.1 -0.1)">
       <use xlink:href="#ArialMT-32"/>
       <use xlink:href="#ArialMT-35" x="55.615234"/>
       <use xlink:href="#ArialMT-30" x="111.230469"/>
       <use xlink:href="#ArialMT-30" x="166.845703"/>
      </g>
     </g>
    </g>
    <g id="ytick_3">
     <g id="line2d_9">
      <path d="M 135 396.640513 
L 972 396.640513 
" clip-path="url(#p7ff95d0092)" style="fill: none; stroke: #cccccc; stroke-width: 0.8; stroke-linecap: round"/>
     </g>
     <g id="text_10">
      <!-- 5000 -->
      <g style="fill: #262626" transform="translate(105.75625 400.219419)scale(0.1 -0.1)">
       <use xlink:href="#ArialMT-35"/>
       <use xlink:href="#ArialMT-30" x="55.615234"/>
       <use xlink:href="#ArialMT-30" x="111.230469"/>
       <use xlink:href="#ArialMT-30" x="166.845703"/>
      </g>
     </g>
    </g>
    <g id="ytick_4">
     <g id="line2d_10">
      <path d="M 135 342.96077 
L 972 342.96077 
" clip-path="url(#p7ff95d0092)" style="fill: none; stroke: #cccccc; stroke-width: 0.8; stroke-linecap: round"/>
     </g>
     <g id="text_11">
      <!-- 7500 -->
      <g style="fill: #262626" transform="translate(105.75625 346.539676)scale(0.1 -0.1)">
       <defs>
        <path id="ArialMT-37" d="M 303 3981 
L 303 4522 
L 3269 4522 
L 3269 4084 
Q 2831 3619 2401 2847 
Q 1972 2075 1738 1259 
Q 1569 684 1522 0 
L 944 0 
Q 953 541 1156 1306 
Q 1359 2072 1739 2783 
Q 2119 3494 2547 3981 
L 303 3981 
z
" transform="scale(0.015625)"/>
       </defs>
       <use xlink:href="#ArialMT-37"/>
       <use xlink:href="#ArialMT-35" x="55.615234"/>
       <use xlink:href="#ArialMT-30" x="111.230469"/>
       <use xlink:href="#ArialMT-30" x="166.845703"/>
      </g>
     </g>
    </g>
    <g id="ytick_5">
     <g id="line2d_11">
      <path d="M 135 289.281026 
L 972 289.281026 
" clip-path="url(#p7ff95d0092)" style="fill: none; stroke: #cccccc; stroke-width: 0.8; stroke-linecap: round"/>
     </g>
     <g id="text_12">
      <!-- 10000 -->
      <g style="fill: #262626" transform="translate(100.195312 292.859932)scale(0.1 -0.1)">
       <use xlink:href="#ArialMT-31"/>
       <use xlink:href="#ArialMT-30" x="55.615234"/>
       <use xlink:href="#ArialMT-30" x="111.230469"/>
       <use xlink:href="#ArialMT-30" x="166.845703"/>
       <use xlink:href="#ArialMT-30" x="222.460938"/>
      </g>
     </g>
    </g>
    <g id="ytick_6">
     <g id="line2d_12">
      <path d="M 135 235.601283 
L 972 235.601283 
" clip-path="url(#p7ff95d0092)" style="fill: none; stroke: #cccccc; stroke-width: 0.8; stroke-linecap: round"/>
     </g>
     <g id="text_13">
      <!-- 12500 -->
      <g style="fill: #262626" transform="translate(100.195312 239.180189)scale(0.1 -0.1)">
       <use xlink:href="#ArialMT-31"/>
       <use xlink:href="#ArialMT-32" x="55.615234"/>
       <use xlink:href="#ArialMT-35" x="111.230469"/>
       <use xlink:href="#ArialMT-30" x="166.845703"/>
       <use xlink:href="#ArialMT-30" x="222.460938"/>
      </g>
     </g>
    </g>
    <g id="ytick_7">
     <g id="line2d_13">
      <path d="M 135 181.921539 
L 972 181.921539 
" clip-path="url(#p7ff95d0092)" style="fill: none; stroke: #cccccc; stroke-width: 0.8; stroke-linecap: round"/>
     </g>
     <g id="text_14">
      <!-- 15000 -->
      <g style="fill: #262626" transform="translate(100.195312 185.500446)scale(0.1 -0.1)">
       <use xlink:href="#ArialMT-31"/>
       <use xlink:href="#ArialMT-35" x="55.615234"/>
       <use xlink:href="#ArialMT-30" x="111.230469"/>
       <use xlink:href="#ArialMT-30" x="166.845703"/>
       <use xlink:href="#ArialMT-30" x="222.460938"/>
      </g>
     </g>
    </g>
    <g id="ytick_8">
     <g id="line2d_14">
      <path d="M 135 128.241796 
L 972 128.241796 
" clip-path="url(#p7ff95d0092)" style="fill: none; stroke: #cccccc; stroke-width: 0.8; stroke-linecap: round"/>
     </g>
     <g id="text_15">
      <!-- 17500 -->
      <g style="fill: #262626" transform="translate(100.195312 131.820702)scale(0.1 -0.1)">
       <use xlink:href="#ArialMT-31"/>
       <use xlink:href="#ArialMT-37" x="55.615234"/>
       <use xlink:href="#ArialMT-35" x="111.230469"/>
       <use xlink:href="#ArialMT-30" x="166.845703"/>
       <use xlink:href="#ArialMT-30" x="222.460938"/>
      </g>
     </g>
    </g>
    <g id="ytick_9">
     <g id="line2d_15">
      <path d="M 135 74.562052 
L 972 74.562052 
" clip-path="url(#p7ff95d0092)" style="fill: none; stroke: #cccccc; stroke-width: 0.8; stroke-linecap: round"/>
     </g>
     <g id="text_16">
      <!-- 20000 -->
      <g style="fill: #262626" transform="translate(100.195312 78.140959)scale(0.1 -0.1)">
       <use xlink:href="#ArialMT-32"/>
       <use xlink:href="#ArialMT-30" x="55.615234"/>
       <use xlink:href="#ArialMT-30" x="111.230469"/>
       <use xlink:href="#ArialMT-30" x="166.845703"/>
       <use xlink:href="#ArialMT-30" x="222.460938"/>
      </g>
     </g>
    </g>
    <g id="text_17">
     <!-- Count -->
     <g style="fill: #262626" transform="translate(94.207813 299.901406)rotate(-90)scale(0.1 -0.1)">
      <defs>
       <path id="ArialMT-43" d="M 3763 1606 
L 4369 1453 
Q 4178 706 3683 314 
Q 3188 -78 2472 -78 
Q 1731 -78 1267 223 
Q 803 525 561 1097 
Q 319 1669 319 2325 
Q 319 3041 592 3573 
Q 866 4106 1370 4382 
Q 1875 4659 2481 4659 
Q 3169 4659 3637 4309 
Q 4106 3959 4291 3325 
L 3694 3184 
Q 3534 3684 3231 3912 
Q 2928 4141 2469 4141 
Q 1941 4141 1586 3887 
Q 1231 3634 1087 3207 
Q 944 2781 944 2328 
Q 944 1744 1114 1308 
Q 1284 872 1643 656 
Q 2003 441 2422 441 
Q 2931 441 3284 734 
Q 3638 1028 3763 1606 
z
" transform="scale(0.015625)"/>
       <path id="ArialMT-6f" d="M 213 1659 
Q 213 2581 725 3025 
Q 1153 3394 1769 3394 
Q 2453 3394 2887 2945 
Q 3322 2497 3322 1706 
Q 3322 1066 3130 698 
Q 2938 331 2570 128 
Q 2203 -75 1769 -75 
Q 1072 -75 642 372 
Q 213 819 213 1659 
z
M 791 1659 
Q 791 1022 1069 705 
Q 1347 388 1769 388 
Q 2188 388 2466 706 
Q 2744 1025 2744 1678 
Q 2744 2294 2464 2611 
Q 2184 2928 1769 2928 
Q 1347 2928 1069 2612 
Q 791 2297 791 1659 
z
" transform="scale(0.015625)"/>
      </defs>
      <use xlink:href="#ArialMT-43"/>
      <use xlink:href="#ArialMT-6f" x="72.216797"/>
      <use xlink:href="#ArialMT-75" x="127.832031"/>
      <use xlink:href="#ArialMT-6e" x="183.447266"/>
      <use xlink:href="#ArialMT-74" x="239.0625"/>
     </g>
    </g>
   </g>
   <g id="patch_3">
    <path d="M 173.045455 504 
L 182.213034 504 
L 182.213034 394.836874 
L 173.045455 394.836874 
z
" clip-path="url(#p7ff95d0092)" style="fill: #1f77b4; fill-opacity: 0.75; stroke: #ffffff; stroke-width: 0.916758; stroke-linejoin: miter"/>
   </g>
   <g id="patch_4">
    <path d="M 182.213034 504 
L 191.380613 504 
L 191.380613 426.507922 
L 182.213034 426.507922 
z
" clip-path="url(#p7ff95d0092)" style="fill: #1f77b4; fill-opacity: 0.75; stroke: #ffffff; stroke-width: 0.916758; stroke-linejoin: miter"/>
   </g>
   <g id="patch_5">
    <path d="M 191.380613 504 
L 200.548193 504 
L 200.548193 504 
L 191.380613 504 
z
" clip-path="url(#p7ff95d0092)" style="fill: #1f77b4; fill-opacity: 0.75; stroke: #ffffff; stroke-width: 0.916758; stroke-linejoin: miter"/>
   </g>
   <g id="patch_6">
    <path d="M 200.548193 504 
L 209.715772 504 
L 209.715772 434.280749 
L 200.548193 434.280749 
z
" clip-path="url(#p7ff95d0092)" style="fill: #1f77b4; fill-opacity: 0.75; stroke: #ffffff; stroke-width: 0.916758; stroke-linejoin: miter"/>
   </g>
   <g id="patch_7">
    <path d="M 209.715772 504 
L 218.883352 504 
L 218.883352 504 
L 209.715772 504 
z
" clip-path="url(#p7ff95d0092)" style="fill: #1f77b4; fill-opacity: 0.75; stroke: #ffffff; stroke-width: 0.916758; stroke-linejoin: miter"/>
   </g>
   <g id="patch_8">
    <path d="M 218.883352 504 
L 228.050931 504 
L 228.050931 442.826564 
L 218.883352 442.826564 
z
" clip-path="url(#p7ff95d0092)" style="fill: #1f77b4; fill-opacity: 0.75; stroke: #ffffff; stroke-width: 0.916758; stroke-linejoin: miter"/>
   </g>
   <g id="patch_9">
    <path d="M 228.050931 504 
L 237.21851 504 
L 237.21851 346.739824 
L 228.050931 346.739824 
z
" clip-path="url(#p7ff95d0092)" style="fill: #1f77b4; fill-opacity: 0.75; stroke: #ffffff; stroke-width: 0.916758; stroke-linejoin: miter"/>
   </g>
   <g id="patch_10">
    <path d="M 237.21851 504 
L 246.38609 504 
L 246.38609 504 
L 237.21851 504 
z
" clip-path="url(#p7ff95d0092)" style="fill: #1f77b4; fill-opacity: 0.75; stroke: #ffffff; stroke-width: 0.916758; stroke-linejoin: miter"/>
   </g>
   <g id="patch_11">
    <path d="M 246.38609 504 
L 255.553669 504 
L 255.553669 388.416776 
L 246.38609 388.416776 
z
" clip-path="url(#p7ff95d0092)" style="fill: #1f77b4; fill-opacity: 0.75; stroke: #ffffff; stroke-width: 0.916758; stroke-linejoin: miter"/>
   </g>
   <g id="patch_12">
    <path d="M 255.553669 504 
L 264.721249 504 
L 264.721249 504 
L 255.553669 504 
z
" clip-path="url(#p7ff95d0092)" style="fill: #1f77b4; fill-opacity: 0.75; stroke: #ffffff; stroke-width: 0.916758; stroke-linejoin: miter"/>
   </g>
   <g id="patch_13">
    <path d="M 264.721249 504 
L 273.888828 504 
L 273.888828 418.047995 
L 264.721249 418.047995 
z
" clip-path="url(#p7ff95d0092)" style="fill: #1f77b4; fill-opacity: 0.75; stroke: #ffffff; stroke-width: 0.916758; stroke-linejoin: miter"/>
   </g>
   <g id="patch_14">
    <path d="M 273.888828 504 
L 283.056407 504 
L 283.056407 504 
L 273.888828 504 
z
" clip-path="url(#p7ff95d0092)" style="fill: #1f77b4; fill-opacity: 0.75; stroke: #ffffff; stroke-width: 0.916758; stroke-linejoin: miter"/>
   </g>
   <g id="patch_15">
    <path d="M 283.056407 504 
L 292.223987 504 
L 292.223987 439.412533 
L 283.056407 439.412533 
z
" clip-path="url(#p7ff95d0092)" style="fill: #1f77b4; fill-opacity: 0.75; stroke: #ffffff; stroke-width: 0.916758; stroke-linejoin: miter"/>
   </g>
   <g id="patch_16">
    <path d="M 292.223987 504 
L 301.391566 504 
L 301.391566 450.620863 
L 292.223987 450.620863 
z
" clip-path="url(#p7ff95d0092)" style="fill: #1f77b4; fill-opacity: 0.75; stroke: #ffffff; stroke-width: 0.916758; stroke-linejoin: miter"/>
   </g>
   <g id="patch_17">
    <path d="M 301.391566 504 
L 310.559146 504 
L 310.559146 504 
L 301.391566 504 
z
" clip-path="url(#p7ff95d0092)" style="fill: #1f77b4; fill-opacity: 0.75; stroke: #ffffff; stroke-width: 0.916758; stroke-linejoin: miter"/>
   </g>
   <g id="patch_18">
    <path d="M 310.559146 504 
L 319.726725 504 
L 319.726725 358.098457 
L 310.559146 358.098457 
z
" clip-path="url(#p7ff95d0092)" style="fill: #1f77b4; fill-opacity: 0.75; stroke: #ffffff; stroke-width: 0.916758; stroke-linejoin: miter"/>
   </g>
   <g id="patch_19">
    <path d="M 319.726725 504 
L 328.894304 504 
L 328.894304 504 
L 319.726725 504 
z
" clip-path="url(#p7ff95d0092)" style="fill: #1f77b4; fill-opacity: 0.75; stroke: #ffffff; stroke-width: 0.916758; stroke-linejoin: miter"/>
   </g>
   <g id="patch_20">
    <path d="M 328.894304 504 
L 338.061884 504 
L 338.061884 409.265989 
L 328.894304 409.265989 
z
" clip-path="url(#p7ff95d0092)" style="fill: #1f77b4; fill-opacity: 0.75; stroke: #ffffff; stroke-width: 0.916758; stroke-linejoin: miter"/>
   </g>
   <g id="patch_21">
    <path d="M 338.061884 504 
L 347.229463 504 
L 347.229463 504 
L 338.061884 504 
z
" clip-path="url(#p7ff95d0092)" style="fill: #1f77b4; fill-opacity: 0.75; stroke: #ffffff; stroke-width: 0.916758; stroke-linejoin: miter"/>
   </g>
   <g id="patch_22">
    <path d="M 347.229463 504 
L 356.397043 504 
L 356.397043 425.649046 
L 347.229463 425.649046 
z
" clip-path="url(#p7ff95d0092)" style="fill: #1f77b4; fill-opacity: 0.75; stroke: #ffffff; stroke-width: 0.916758; stroke-linejoin: miter"/>
   </g>
   <g id="patch_23">
    <path d="M 356.397043 504 
L 365.564622 504 
L 365.564622 436.21322 
L 356.397043 436.21322 
z
" clip-path="url(#p7ff95d0092)" style="fill: #1f77b4; fill-opacity: 0.75; stroke: #ffffff; stroke-width: 0.916758; stroke-linejoin: miter"/>
   </g>
   <g id="patch_24">
    <path d="M 365.564622 504 
L 374.732202 504 
L 374.732202 504 
L 365.564622 504 
z
" clip-path="url(#p7ff95d0092)" style="fill: #1f77b4; fill-opacity: 0.75; stroke: #ffffff; stroke-width: 0.916758; stroke-linejoin: miter"/>
   </g>
   <g id="patch_25">
    <path d="M 374.732202 504 
L 383.899781 504 
L 383.899781 442.418598 
L 374.732202 442.418598 
z
" clip-path="url(#p7ff95d0092)" style="fill: #1f77b4; fill-opacity: 0.75; stroke: #ffffff; stroke-width: 0.916758; stroke-linejoin: miter"/>
   </g>
   <g id="patch_26">
    <path d="M 383.899781 504 
L 393.06736 504 
L 393.06736 504 
L 383.899781 504 
z
" clip-path="url(#p7ff95d0092)" style="fill: #1f77b4; fill-opacity: 0.75; stroke: #ffffff; stroke-width: 0.916758; stroke-linejoin: miter"/>
   </g>
   <g id="patch_27">
    <path d="M 393.06736 504 
L 402.23494 504 
L 402.23494 89.828571 
L 393.06736 89.828571 
z
" clip-path="url(#p7ff95d0092)" style="fill: #1f77b4; fill-opacity: 0.75; stroke: #ffffff; stroke-width: 0.916758; stroke-linejoin: miter"/>
   </g>
   <g id="patch_28">
    <path d="M 402.23494 504 
L 411.402519 504 
L 411.402519 287.026477 
L 402.23494 287.026477 
z
" clip-path="url(#p7ff95d0092)" style="fill: #1f77b4; fill-opacity: 0.75; stroke: #ffffff; stroke-width: 0.916758; stroke-linejoin: miter"/>
   </g>
   <g id="patch_29">
    <path d="M 411.402519 504 
L 420.570099 504 
L 420.570099 504 
L 411.402519 504 
z
" clip-path="url(#p7ff95d0092)" style="fill: #1f77b4; fill-opacity: 0.75; stroke: #ffffff; stroke-width: 0.916758; stroke-linejoin: miter"/>
   </g>
   <g id="patch_30">
    <path d="M 420.570099 504 
L 429.737678 504 
L 429.737678 353.439056 
L 420.570099 353.439056 
z
" clip-path="url(#p7ff95d0092)" style="fill: #1f77b4; fill-opacity: 0.75; stroke: #ffffff; stroke-width: 0.916758; stroke-linejoin: miter"/>
   </g>
   <g id="patch_31">
    <path d="M 429.737678 504 
L 438.905257 504 
L 438.905257 504 
L 429.737678 504 
z
" clip-path="url(#p7ff95d0092)" style="fill: #1f77b4; fill-opacity: 0.75; stroke: #ffffff; stroke-width: 0.916758; stroke-linejoin: miter"/>
   </g>
   <g id="patch_32">
    <path d="M 438.905257 504 
L 448.072837 504 
L 448.072837 384.165341 
L 438.905257 384.165341 
z
" clip-path="url(#p7ff95d0092)" style="fill: #1f77b4; fill-opacity: 0.75; stroke: #ffffff; stroke-width: 0.916758; stroke-linejoin: miter"/>
   </g>
   <g id="patch_33">
    <path d="M 448.072837 504 
L 457.240416 504 
L 457.240416 504 
L 448.072837 504 
z
" clip-path="url(#p7ff95d0092)" style="fill: #1f77b4; fill-opacity: 0.75; stroke: #ffffff; stroke-width: 0.916758; stroke-linejoin: miter"/>
   </g>
   <g id="patch_34">
    <path d="M 457.240416 504 
L 466.407996 504 
L 466.407996 405.422519 
L 457.240416 405.422519 
z
" clip-path="url(#p7ff95d0092)" style="fill: #1f77b4; fill-opacity: 0.75; stroke: #ffffff; stroke-width: 0.916758; stroke-linejoin: miter"/>
   </g>
   <g id="patch_35">
    <path d="M 466.407996 504 
L 475.575575 504 
L 475.575575 397.778524 
L 466.407996 397.778524 
z
" clip-path="url(#p7ff95d0092)" style="fill: #1f77b4; fill-opacity: 0.75; stroke: #ffffff; stroke-width: 0.916758; stroke-linejoin: miter"/>
   </g>
   <g id="patch_36">
    <path d="M 475.575575 504 
L 484.743154 504 
L 484.743154 504 
L 475.575575 504 
z
" clip-path="url(#p7ff95d0092)" style="fill: #1f77b4; fill-opacity: 0.75; stroke: #ffffff; stroke-width: 0.916758; stroke-linejoin: miter"/>
   </g>
   <g id="patch_37">
    <path d="M 484.743154 504 
L 493.910734 504 
L 493.910734 426.722641 
L 484.743154 426.722641 
z
" clip-path="url(#p7ff95d0092)" style="fill: #1f77b4; fill-opacity: 0.75; stroke: #ffffff; stroke-width: 0.916758; stroke-linejoin: miter"/>
   </g>
   <g id="patch_38">
    <path d="M 493.910734 504 
L 503.078313 504 
L 503.078313 504 
L 493.910734 504 
z
" clip-path="url(#p7ff95d0092)" style="fill: #1f77b4; fill-opacity: 0.75; stroke: #ffffff; stroke-width: 0.916758; stroke-linejoin: miter"/>
   </g>
   <g id="patch_39">
    <path d="M 503.078313 504 
L 512.245893 504 
L 512.245893 434.023086 
L 503.078313 434.023086 
z
" clip-path="url(#p7ff95d0092)" style="fill: #1f77b4; fill-opacity: 0.75; stroke: #ffffff; stroke-width: 0.916758; stroke-linejoin: miter"/>
   </g>
   <g id="patch_40">
    <path d="M 512.245893 504 
L 521.413472 504 
L 521.413472 504 
L 512.245893 504 
z
" clip-path="url(#p7ff95d0092)" style="fill: #1f77b4; fill-opacity: 0.75; stroke: #ffffff; stroke-width: 0.916758; stroke-linejoin: miter"/>
   </g>
   <g id="patch_41">
    <path d="M 521.413472 504 
L 530.581051 504 
L 530.581051 438.403354 
L 521.413472 438.403354 
z
" clip-path="url(#p7ff95d0092)" style="fill: #1f77b4; fill-opacity: 0.75; stroke: #ffffff; stroke-width: 0.916758; stroke-linejoin: miter"/>
   </g>
   <g id="patch_42">
    <path d="M 530.581051 504 
L 539.748631 504 
L 539.748631 444.13635 
L 530.581051 444.13635 
z
" clip-path="url(#p7ff95d0092)" style="fill: #1f77b4; fill-opacity: 0.75; stroke: #ffffff; stroke-width: 0.916758; stroke-linejoin: miter"/>
   </g>
   <g id="patch_43">
    <path d="M 539.748631 504 
L 548.91621 504 
L 548.91621 504 
L 539.748631 504 
z
" clip-path="url(#p7ff95d0092)" style="fill: #1f77b4; fill-opacity: 0.75; stroke: #ffffff; stroke-width: 0.916758; stroke-linejoin: miter"/>
   </g>
   <g id="patch_44">
    <path d="M 548.91621 504 
L 558.08379 504 
L 558.08379 443.535137 
L 548.91621 443.535137 
z
" clip-path="url(#p7ff95d0092)" style="fill: #1f77b4; fill-opacity: 0.75; stroke: #ffffff; stroke-width: 0.916758; stroke-linejoin: miter"/>
   </g>
   <g id="patch_45">
    <path d="M 558.08379 504 
L 567.251369 504 
L 567.251369 504 
L 558.08379 504 
z
" clip-path="url(#p7ff95d0092)" style="fill: #1f77b4; fill-opacity: 0.75; stroke: #ffffff; stroke-width: 0.916758; stroke-linejoin: miter"/>
   </g>
   <g id="patch_46">
    <path d="M 567.251369 504 
L 576.418949 504 
L 576.418949 449.074887 
L 567.251369 449.074887 
z
" clip-path="url(#p7ff95d0092)" style="fill: #1f77b4; fill-opacity: 0.75; stroke: #ffffff; stroke-width: 0.916758; stroke-linejoin: miter"/>
   </g>
   <g id="patch_47">
    <path d="M 576.418949 504 
L 585.586528 504 
L 585.586528 452.789525 
L 576.418949 452.789525 
z
" clip-path="url(#p7ff95d0092)" style="fill: #1f77b4; fill-opacity: 0.75; stroke: #ffffff; stroke-width: 0.916758; stroke-linejoin: miter"/>
   </g>
   <g id="patch_48">
    <path d="M 585.586528 504 
L 594.754107 504 
L 594.754107 504 
L 585.586528 504 
z
" clip-path="url(#p7ff95d0092)" style="fill: #1f77b4; fill-opacity: 0.75; stroke: #ffffff; stroke-width: 0.916758; stroke-linejoin: miter"/>
   </g>
   <g id="patch_49">
    <path d="M 594.754107 504 
L 603.921687 504 
L 603.921687 453.047188 
L 594.754107 453.047188 
z
" clip-path="url(#p7ff95d0092)" style="fill: #1f77b4; fill-opacity: 0.75; stroke: #ffffff; stroke-width: 0.916758; stroke-linejoin: miter"/>
   </g>
   <g id="patch_50">
    <path d="M 603.921687 504 
L 613.089266 504 
L 613.089266 504 
L 603.921687 504 
z
" clip-path="url(#p7ff95d0092)" style="fill: #1f77b4; fill-opacity: 0.75; stroke: #ffffff; stroke-width: 0.916758; stroke-linejoin: miter"/>
   </g>
   <g id="patch_51">
    <path d="M 613.089266 504 
L 622.256846 504 
L 622.256846 454.571692 
L 613.089266 454.571692 
z
" clip-path="url(#p7ff95d0092)" style="fill: #1f77b4; fill-opacity: 0.75; stroke: #ffffff; stroke-width: 0.916758; stroke-linejoin: miter"/>
   </g>
   <g id="patch_52">
    <path d="M 622.256846 504 
L 631.424425 504 
L 631.424425 504 
L 622.256846 504 
z
" clip-path="url(#p7ff95d0092)" style="fill: #1f77b4; fill-opacity: 0.75; stroke: #ffffff; stroke-width: 0.916758; stroke-linejoin: miter"/>
   </g>
   <g id="patch_53">
    <path d="M 631.424425 504 
L 640.592004 504 
L 640.592004 455.258793 
L 631.424425 455.258793 
z
" clip-path="url(#p7ff95d0092)" style="fill: #1f77b4; fill-opacity: 0.75; stroke: #ffffff; stroke-width: 0.916758; stroke-linejoin: miter"/>
   </g>
   <g id="patch_54">
    <path d="M 640.592004 504 
L 649.759584 504 
L 649.759584 459.166678 
L 640.592004 459.166678 
z
" clip-path="url(#p7ff95d0092)" style="fill: #1f77b4; fill-opacity: 0.75; stroke: #ffffff; stroke-width: 0.916758; stroke-linejoin: miter"/>
   </g>
   <g id="patch_55">
    <path d="M 649.759584 504 
L 658.927163 504 
L 658.927163 504 
L 649.759584 504 
z
" clip-path="url(#p7ff95d0092)" style="fill: #1f77b4; fill-opacity: 0.75; stroke: #ffffff; stroke-width: 0.916758; stroke-linejoin: miter"/>
   </g>
   <g id="patch_56">
    <path d="M 658.927163 504 
L 668.094743 504 
L 668.094743 459.918195 
L 658.927163 459.918195 
z
" clip-path="url(#p7ff95d0092)" style="fill: #1f77b4; fill-opacity: 0.75; stroke: #ffffff; stroke-width: 0.916758; stroke-linejoin: miter"/>
   </g>
   <g id="patch_57">
    <path d="M 668.094743 504 
L 677.262322 504 
L 677.262322 504 
L 668.094743 504 
z
" clip-path="url(#p7ff95d0092)" style="fill: #1f77b4; fill-opacity: 0.75; stroke: #ffffff; stroke-width: 0.916758; stroke-linejoin: miter"/>
   </g>
   <g id="patch_58">
    <path d="M 677.262322 504 
L 686.429901 504 
L 686.429901 462.323047 
L 677.262322 462.323047 
z
" clip-path="url(#p7ff95d0092)" style="fill: #1f77b4; fill-opacity: 0.75; stroke: #ffffff; stroke-width: 0.916758; stroke-linejoin: miter"/>
   </g>
   <g id="patch_59">
    <path d="M 686.429901 504 
L 695.597481 504 
L 695.597481 504 
L 686.429901 504 
z
" clip-path="url(#p7ff95d0092)" style="fill: #1f77b4; fill-opacity: 0.75; stroke: #ffffff; stroke-width: 0.916758; stroke-linejoin: miter"/>
   </g>
   <g id="patch_60">
    <path d="M 695.597481 504 
L 704.76506 504 
L 704.76506 464.448765 
L 695.597481 464.448765 
z
" clip-path="url(#p7ff95d0092)" style="fill: #1f77b4; fill-opacity: 0.75; stroke: #ffffff; stroke-width: 0.916758; stroke-linejoin: miter"/>
   </g>
   <g id="patch_61">
    <path d="M 704.76506 504 
L 713.93264 504 
L 713.93264 463.418114 
L 704.76506 463.418114 
z
" clip-path="url(#p7ff95d0092)" style="fill: #1f77b4; fill-opacity: 0.75; stroke: #ffffff; stroke-width: 0.916758; stroke-linejoin: miter"/>
   </g>
   <g id="patch_62">
    <path d="M 713.93264 504 
L 723.100219 504 
L 723.100219 504 
L 713.93264 504 
z
" clip-path="url(#p7ff95d0092)" style="fill: #1f77b4; fill-opacity: 0.75; stroke: #ffffff; stroke-width: 0.916758; stroke-linejoin: miter"/>
   </g>
   <g id="patch_63">
    <path d="M 723.100219 504 
L 732.267798 504 
L 732.267798 467.755437 
L 723.100219 467.755437 
z
" clip-path="url(#p7ff95d0092)" style="fill: #1f77b4; fill-opacity: 0.75; stroke: #ffffff; stroke-width: 0.916758; stroke-linejoin: miter"/>
   </g>
   <g id="patch_64">
    <path d="M 732.267798 504 
L 741.435378 504 
L 741.435378 504 
L 732.267798 504 
z
" clip-path="url(#p7ff95d0092)" style="fill: #1f77b4; fill-opacity: 0.75; stroke: #ffffff; stroke-width: 0.916758; stroke-linejoin: miter"/>
   </g>
   <g id="patch_65">
    <path d="M 741.435378 504 
L 750.602957 504 
L 750.602957 467.325999 
L 741.435378 467.325999 
z
" clip-path="url(#p7ff95d0092)" style="fill: #1f77b4; fill-opacity: 0.75; stroke: #ffffff; stroke-width: 0.916758; stroke-linejoin: miter"/>
   </g>
   <g id="patch_66">
    <path d="M 750.602957 504 
L 759.770537 504 
L 759.770537 469.25847 
L 750.602957 469.25847 
z
" clip-path="url(#p7ff95d0092)" style="fill: #1f77b4; fill-opacity: 0.75; stroke: #ffffff; stroke-width: 0.916758; stroke-linejoin: miter"/>
   </g>
   <g id="patch_67">
    <path d="M 759.770537 504 
L 768.938116 504 
L 768.938116 504 
L 759.770537 504 
z
" clip-path="url(#p7ff95d0092)" style="fill: #1f77b4; fill-opacity: 0.75; stroke: #ffffff; stroke-width: 0.916758; stroke-linejoin: miter"/>
   </g>
   <g id="patch_68">
    <path d="M 768.938116 504 
L 778.105696 504 
L 778.105696 470.267649 
L 768.938116 470.267649 
z
" clip-path="url(#p7ff95d0092)" style="fill: #1f77b4; fill-opacity: 0.75; stroke: #ffffff; stroke-width: 0.916758; stroke-linejoin: miter"/>
   </g>
   <g id="patch_69">
    <path d="M 778.105696 504 
L 787.273275 504 
L 787.273275 504 
L 778.105696 504 
z
" clip-path="url(#p7ff95d0092)" style="fill: #1f77b4; fill-opacity: 0.75; stroke: #ffffff; stroke-width: 0.916758; stroke-linejoin: miter"/>
   </g>
   <g id="patch_70">
    <path d="M 787.273275 504 
L 796.440854 504 
L 796.440854 467.648078 
L 787.273275 467.648078 
z
" clip-path="url(#p7ff95d0092)" style="fill: #1f77b4; fill-opacity: 0.75; stroke: #ffffff; stroke-width: 0.916758; stroke-linejoin: miter"/>
   </g>
   <g id="patch_71">
    <path d="M 796.440854 504 
L 805.608434 504 
L 805.608434 504 
L 796.440854 504 
z
" clip-path="url(#p7ff95d0092)" style="fill: #1f77b4; fill-opacity: 0.75; stroke: #ffffff; stroke-width: 0.916758; stroke-linejoin: miter"/>
   </g>
   <g id="patch_72">
    <path d="M 805.608434 504 
L 814.776013 504 
L 814.776013 470.804447 
L 805.608434 470.804447 
z
" clip-path="url(#p7ff95d0092)" style="fill: #1f77b4; fill-opacity: 0.75; stroke: #ffffff; stroke-width: 0.916758; stroke-linejoin: miter"/>
   </g>
   <g id="patch_73">
    <path d="M 814.776013 504 
L 823.943593 504 
L 823.943593 472.865749 
L 814.776013 472.865749 
z
" clip-path="url(#p7ff95d0092)" style="fill: #1f77b4; fill-opacity: 0.75; stroke: #ffffff; stroke-width: 0.916758; stroke-linejoin: miter"/>
   </g>
   <g id="patch_74">
    <path d="M 823.943593 504 
L 833.111172 504 
L 833.111172 504 
L 823.943593 504 
z
" clip-path="url(#p7ff95d0092)" style="fill: #1f77b4; fill-opacity: 0.75; stroke: #ffffff; stroke-width: 0.916758; stroke-linejoin: miter"/>
   </g>
   <g id="patch_75">
    <path d="M 833.111172 504 
L 842.278751 504 
L 842.278751 474.411725 
L 833.111172 474.411725 
z
" clip-path="url(#p7ff95d0092)" style="fill: #1f77b4; fill-opacity: 0.75; stroke: #ffffff; stroke-width: 0.916758; stroke-linejoin: miter"/>
   </g>
   <g id="patch_76">
    <path d="M 842.278751 504 
L 851.446331 504 
L 851.446331 504 
L 842.278751 504 
z
" clip-path="url(#p7ff95d0092)" style="fill: #1f77b4; fill-opacity: 0.75; stroke: #ffffff; stroke-width: 0.916758; stroke-linejoin: miter"/>
   </g>
   <g id="patch_77">
    <path d="M 851.446331 504 
L 860.61391 504 
L 860.61391 474.325838 
L 851.446331 474.325838 
z
" clip-path="url(#p7ff95d0092)" style="fill: #1f77b4; fill-opacity: 0.75; stroke: #ffffff; stroke-width: 0.916758; stroke-linejoin: miter"/>
   </g>
   <g id="patch_78">
    <path d="M 860.61391 504 
L 869.78149 504 
L 869.78149 504 
L 860.61391 504 
z
" clip-path="url(#p7ff95d0092)" style="fill: #1f77b4; fill-opacity: 0.75; stroke: #ffffff; stroke-width: 0.916758; stroke-linejoin: miter"/>
   </g>
   <g id="patch_79">
    <path d="M 869.78149 504 
L 878.949069 504 
L 878.949069 475.785927 
L 869.78149 475.785927 
z
" clip-path="url(#p7ff95d0092)" style="fill: #1f77b4; fill-opacity: 0.75; stroke: #ffffff; stroke-width: 0.916758; stroke-linejoin: miter"/>
   </g>
   <g id="patch_80">
    <path d="M 878.949069 504 
L 888.116648 504 
L 888.116648 475.850343 
L 878.949069 475.850343 
z
" clip-path="url(#p7ff95d0092)" style="fill: #1f77b4; fill-opacity: 0.75; stroke: #ffffff; stroke-width: 0.916758; stroke-linejoin: miter"/>
   </g>
   <g id="patch_81">
    <path d="M 888.116648 504 
L 897.284228 504 
L 897.284228 504 
L 888.116648 504 
z
" clip-path="url(#p7ff95d0092)" style="fill: #1f77b4; fill-opacity: 0.75; stroke: #ffffff; stroke-width: 0.916758; stroke-linejoin: miter"/>
   </g>
   <g id="patch_82">
    <path d="M 897.284228 504 
L 906.451807 504 
L 906.451807 475.764455 
L 897.284228 475.764455 
z
" clip-path="url(#p7ff95d0092)" style="fill: #1f77b4; fill-opacity: 0.75; stroke: #ffffff; stroke-width: 0.916758; stroke-linejoin: miter"/>
   </g>
   <g id="patch_83">
    <path d="M 906.451807 504 
L 915.619387 504 
L 915.619387 504 
L 906.451807 504 
z
" clip-path="url(#p7ff95d0092)" style="fill: #1f77b4; fill-opacity: 0.75; stroke: #ffffff; stroke-width: 0.916758; stroke-linejoin: miter"/>
   </g>
   <g id="patch_84">
    <path d="M 915.619387 504 
L 924.786966 504 
L 924.786966 477.417791 
L 915.619387 477.417791 
z
" clip-path="url(#p7ff95d0092)" style="fill: #1f77b4; fill-opacity: 0.75; stroke: #ffffff; stroke-width: 0.916758; stroke-linejoin: miter"/>
   </g>
   <g id="patch_85">
    <path d="M 924.786966 504 
L 933.954545 504 
L 933.954545 477.653982 
L 924.786966 477.653982 
z
" clip-path="url(#p7ff95d0092)" style="fill: #1f77b4; fill-opacity: 0.75; stroke: #ffffff; stroke-width: 0.916758; stroke-linejoin: miter"/>
   </g>
   <g id="patch_86">
    <path d="M 135 504 
L 135 69.12 
" style="fill: none; stroke: #cccccc; stroke-width: 0.8; stroke-linejoin: miter; stroke-linecap: square"/>
   </g>
   <g id="patch_87">
    <path d="M 972 504 
L 972 69.12 
" style="fill: none; stroke: #cccccc; stroke-width: 0.8; stroke-linejoin: miter; stroke-linecap: square"/>
   </g>
   <g id="patch_88">
    <path d="M 135 504 
L 972 504 
" style="fill: none; stroke: #cccccc; stroke-width: 0.8; stroke-linejoin: miter; stroke-linecap: square"/>
   </g>
   <g id="patch_89">
    <path d="M 135 69.12 
L 972 69.12 
" style="fill: none; stroke: #cccccc; stroke-width: 0.8; stroke-linejoin: miter; stroke-linecap: square"/>
   </g>
   <g id="text_18">
    <!-- Distribución de cantidad de ratings por usuario -->
    <g style="fill: #262626" transform="translate(429.770625 63.12)scale(0.12 -0.12)">
     <defs>
      <path id="ArialMT-44" d="M 494 0 
L 494 4581 
L 2072 4581 
Q 2606 4581 2888 4516 
Q 3281 4425 3559 4188 
Q 3922 3881 4101 3404 
Q 4281 2928 4281 2316 
Q 4281 1794 4159 1391 
Q 4038 988 3847 723 
Q 3656 459 3429 307 
Q 3203 156 2883 78 
Q 2563 0 2147 0 
L 494 0 
z
M 1100 541 
L 2078 541 
Q 2531 541 2789 625 
Q 3047 709 3200 863 
Q 3416 1078 3536 1442 
Q 3656 1806 3656 2325 
Q 3656 3044 3420 3430 
Q 3184 3816 2847 3947 
Q 2603 4041 2063 4041 
L 1100 4041 
L 1100 541 
z
" transform="scale(0.015625)"/>
      <path id="ArialMT-62" d="M 941 0 
L 419 0 
L 419 4581 
L 981 4581 
L 981 2947 
Q 1338 3394 1891 3394 
Q 2197 3394 2470 3270 
Q 2744 3147 2920 2923 
Q 3097 2700 3197 2384 
Q 3297 2069 3297 1709 
Q 3297 856 2875 390 
Q 2453 -75 1863 -75 
Q 1275 -75 941 416 
L 941 0 
z
M 934 1684 
Q 934 1088 1097 822 
Q 1363 388 1816 388 
Q 2184 388 2453 708 
Q 2722 1028 2722 1663 
Q 2722 2313 2464 2622 
Q 2206 2931 1841 2931 
Q 1472 2931 1203 2611 
Q 934 2291 934 1684 
z
" transform="scale(0.015625)"/>
      <path id="ArialMT-63" d="M 2588 1216 
L 3141 1144 
Q 3050 572 2676 248 
Q 2303 -75 1759 -75 
Q 1078 -75 664 370 
Q 250 816 250 1647 
Q 250 2184 428 2587 
Q 606 2991 970 3192 
Q 1334 3394 1763 3394 
Q 2303 3394 2647 3120 
Q 2991 2847 3088 2344 
L 2541 2259 
Q 2463 2594 2264 2762 
Q 2066 2931 1784 2931 
Q 1359 2931 1093 2626 
Q 828 2322 828 1663 
Q 828 994 1084 691 
Q 1341 388 1753 388 
Q 2084 388 2306 591 
Q 2528 794 2588 1216 
z
" transform="scale(0.015625)"/>
      <path id="ArialMT-f3" d="M 213 1659 
Q 213 2581 725 3025 
Q 1153 3394 1769 3394 
Q 2453 3394 2887 2945 
Q 3322 2497 3322 1706 
Q 3322 1066 3130 698 
Q 2938 331 2570 128 
Q 2203 -75 1769 -75 
Q 1072 -75 642 372 
Q 213 819 213 1659 
z
M 791 1659 
Q 791 1022 1069 705 
Q 1347 388 1769 388 
Q 2188 388 2466 706 
Q 2744 1025 2744 1678 
Q 2744 2294 2464 2611 
Q 2184 2928 1769 2928 
Q 1347 2928 1069 2612 
Q 791 2297 791 1659 
z
M 1454 3731 
L 1869 4606 
L 2607 4606 
L 1919 3731 
L 1454 3731 
z
" transform="scale(0.015625)"/>
      <path id="ArialMT-20" transform="scale(0.015625)"/>
      <path id="ArialMT-64" d="M 2575 0 
L 2575 419 
Q 2259 -75 1647 -75 
Q 1250 -75 917 144 
Q 584 363 401 755 
Q 219 1147 219 1656 
Q 219 2153 384 2558 
Q 550 2963 881 3178 
Q 1213 3394 1622 3394 
Q 1922 3394 2156 3267 
Q 2391 3141 2538 2938 
L 2538 4581 
L 3097 4581 
L 3097 0 
L 2575 0 
z
M 797 1656 
Q 797 1019 1065 703 
Q 1334 388 1700 388 
Q 2069 388 2326 689 
Q 2584 991 2584 1609 
Q 2584 2291 2321 2609 
Q 2059 2928 1675 2928 
Q 1300 2928 1048 2622 
Q 797 2316 797 1656 
z
" transform="scale(0.015625)"/>
      <path id="ArialMT-65" d="M 2694 1069 
L 3275 997 
Q 3138 488 2766 206 
Q 2394 -75 1816 -75 
Q 1088 -75 661 373 
Q 234 822 234 1631 
Q 234 2469 665 2931 
Q 1097 3394 1784 3394 
Q 2450 3394 2872 2941 
Q 3294 2488 3294 1666 
Q 3294 1616 3291 1516 
L 816 1516 
Q 847 969 1125 678 
Q 1403 388 1819 388 
Q 2128 388 2347 550 
Q 2566 713 2694 1069 
z
M 847 1978 
L 2700 1978 
Q 2663 2397 2488 2606 
Q 2219 2931 1791 2931 
Q 1403 2931 1139 2672 
Q 875 2413 847 1978 
z
" transform="scale(0.015625)"/>
      <path id="ArialMT-70" d="M 422 -1272 
L 422 3319 
L 934 3319 
L 934 2888 
Q 1116 3141 1344 3267 
Q 1572 3394 1897 3394 
Q 2322 3394 2647 3175 
Q 2972 2956 3137 2557 
Q 3303 2159 3303 1684 
Q 3303 1175 3120 767 
Q 2938 359 2589 142 
Q 2241 -75 1856 -75 
Q 1575 -75 1351 44 
Q 1128 163 984 344 
L 984 -1272 
L 422 -1272 
z
M 931 1641 
Q 931 1000 1190 694 
Q 1450 388 1819 388 
Q 2194 388 2461 705 
Q 2728 1022 2728 1688 
Q 2728 2322 2467 2637 
Q 2206 2953 1844 2953 
Q 1484 2953 1207 2617 
Q 931 2281 931 1641 
z
" transform="scale(0.015625)"/>
     </defs>
     <use xlink:href="#ArialMT-44"/>
     <use xlink:href="#ArialMT-69" x="72.216797"/>
     <use xlink:href="#ArialMT-73" x="94.433594"/>
     <use xlink:href="#ArialMT-74" x="144.433594"/>
     <use xlink:href="#ArialMT-72" x="172.216797"/>
     <use xlink:href="#ArialMT-69" x="205.517578"/>
     <use xlink:href="#ArialMT-62" x="227.734375"/>
     <use xlink:href="#ArialMT-75" x="283.349609"/>
     <use xlink:href="#ArialMT-63" x="338.964844"/>
     <use xlink:href="#ArialMT-69" x="388.964844"/>
     <use xlink:href="#ArialMT-f3" x="411.181641"/>
     <use xlink:href="#ArialMT-6e" x="466.796875"/>
     <use xlink:href="#ArialMT-20" x="522.412109"/>
     <use xlink:href="#ArialMT-64" x="550.195312"/>
     <use xlink:href="#ArialMT-65" x="605.810547"/>
     <use xlink:href="#ArialMT-20" x="661.425781"/>
     <use xlink:href="#ArialMT-63" x="689.208984"/>
     <use xlink:href="#ArialMT-61" x="739.208984"/>
     <use xlink:href="#ArialMT-6e" x="794.824219"/>
     <use xlink:href="#ArialMT-74" x="850.439453"/>
     <use xlink:href="#ArialMT-69" x="878.222656"/>
     <use xlink:href="#ArialMT-64" x="900.439453"/>
     <use xlink:href="#ArialMT-61" x="956.054688"/>
     <use xlink:href="#ArialMT-64" x="1011.669922"/>
     <use xlink:href="#ArialMT-20" x="1067.285156"/>
     <use xlink:href="#ArialMT-64" x="1095.068359"/>
     <use xlink:href="#ArialMT-65" x="1150.683594"/>
     <use xlink:href="#ArialMT-20" x="1206.298828"/>
     <use xlink:href="#ArialMT-72" x="1234.082031"/>
     <use xlink:href="#ArialMT-61" x="1267.382812"/>
     <use xlink:href="#ArialMT-74" x="1322.998047"/>
     <use xlink:href="#ArialMT-69" x="1350.78125"/>
     <use xlink:href="#ArialMT-6e" x="1372.998047"/>
     <use xlink:href="#ArialMT-67" x="1428.613281"/>
     <use xlink:href="#ArialMT-73" x="1484.228516"/>
     <use xlink:href="#ArialMT-20" x="1534.228516"/>
     <use xlink:href="#ArialMT-70" x="1562.011719"/>
     <use xlink:href="#ArialMT-6f" x="1617.626953"/>
     <use xlink:href="#ArialMT-72" x="1673.242188"/>
     <use xlink:href="#ArialMT-20" x="1706.542969"/>
     <use xlink:href="#ArialMT-75" x="1734.326172"/>
     <use xlink:href="#ArialMT-73" x="1789.941406"/>
     <use xlink:href="#ArialMT-75" x="1839.941406"/>
     <use xlink:href="#ArialMT-61" x="1895.556641"/>
     <use xlink:href="#ArialMT-72" x="1951.171875"/>
     <use xlink:href="#ArialMT-69" x="1984.472656"/>
     <use xlink:href="#ArialMT-6f" x="2006.689453"/>
    </g>
   </g>
  </g>
 </g>
 <defs>
  <clipPath id="p7ff95d0092">
   <rect x="135" y="69.12" width="837" height="434.88"/>
  </clipPath>
 </defs>
</svg>
